HIERARCHY
ROOT Hips
{
  OFFSET -6.20755 105.465 125.341
  CHANNELS 6 Xposition Yposition Zposition Zrotation Xrotation Yrotation
  JOINT RightUpLeg
  {
    OFFSET -8.9458 -8.66707 0.101652
    CHANNELS 3 Zrotation Xrotation Yrotation
    JOINT RightLeg
    {
      OFFSET 0 -44.4227 1.3727
      CHANNELS 3 Zrotation Xrotation Yrotation
      JOINT RightFoot
      {
        OFFSET 0.253549 -42.0924 -1.46059
        CHANNELS 3 Zrotation Xrotation Yrotation
        JOINT RightToes
        {
          OFFSET 0.04 -4.41509 8.4991
          CHANNELS 3 Zrotation Xrotation Yrotation
          End Site
          {
            OFFSET -0.08 -0.137448 9.77979
          }
        }
      }
    }
  }
  JOINT Spine
  {
    OFFSET 0 11.8905 0
    CHANNELS 3 Zrotation Xrotation Yrotation
    JOINT Spine1
    {
      OFFSET 0 25.6574 0.127663
      CHANNELS 3 Zrotation Xrotation Yrotation
      JOINT HEad
      {
        OFFSET 0 8.73416 0.011341
        CHANNELS 3 Zrotation Xrotation Yrotation
        End Site
        {
          OFFSET -0.29 12.7742 2.51395
        }
      }
      JOINT LeftShoulder1
      {
        OFFSET 8.99 -0.362252 -0.22
        CHANNELS 3 Zrotation Xrotation Yrotation
        JOINT LeftArm
        {
          OFFSET 10.2827 -0.00338 0.322123
          CHANNELS 3 Zrotation Xrotation Yrotation
          JOINT LeftForeArm
          {
            OFFSET 32.7669 0.099144 -1.42434
            CHANNELS 3 Zrotation Xrotation Yrotation
            JOINT LeftHand
            {
              OFFSET 27.5643 0.085362 1.02216
              CHANNELS 3 Zrotation Xrotation Yrotation
              End Site
              {
                OFFSET 16.7443 -0.6 1.50291
              }
            }
          }
        }
      }
      JOINT RightShoulder
      {
        OFFSET -8.99 -0.362252 -0.22
        CHANNELS 3 Zrotation Xrotation Yrotation
        JOINT RightArm
        {
          OFFSET -10.2827 -0.00338 0.322123
          CHANNELS 3 Zrotation Xrotation Yrotation
          JOINT RightForeArm
          {
            OFFSET -32.8971 0.099144 -1.42434
            CHANNELS 3 Zrotation Xrotation Yrotation
            JOINT RightHand
            {
              OFFSET -27.4921 0.085362 1.02216
              CHANNELS 3 Zrotation Xrotation Yrotation
              End Site
              {
                OFFSET -16.6312 -0.6 1.50291
              }
            }
          }
        }
      }
    }
  }
  JOINT LeftUpLeg
  {
    OFFSET 8.9458 -8.66707 0.101652
    CHANNELS 3 Zrotation Xrotation Yrotation
    JOINT LeftLeg
    {
      OFFSET 0 -44.4227 1.3727
      CHANNELS 3 Zrotation Xrotation Yrotation
      JOINT LeftFoot
      {
        OFFSET -0.253549 -42.0924 -1.46059
        CHANNELS 3 Zrotation Xrotation Yrotation
        JOINT LeftToes
        {
          OFFSET -0.04 -4.41509 8.4991
          CHANNELS 3 Zrotation Xrotation Yrotation
          End Site
          {
            OFFSET 0.08 -0.047448 9.77979
          }
        }
      }
    }
  }
}
MOTION
Frames:	21
Frame Time:	0.0166667
-6.20755 105.465 125.341 0.501034 -0.0547412 -179.061 2.92159 -21.1799 0.0490297 -0.981964 22.727 -4.16099 0.359536 -7.21867 -0.17443 0.0462048 0.000533964 0.662642 0.954701 3.93539 -0.045811 0.397105 2.93953 0.0988596 5.29305 -1.00058 2.79836 1.49089e-016 7.95139e-016 -0 -68.6557 13.666 -28.9485 6.40132 3.79725 -136.058 0.368473 9.90896 -0.00117926 -2.44122 0.254116 0.524385 90.6398 -36.6725 8.52754 19.285 12.914 4.68691 -0.369625 9.91382 0.00119887 1.15754 2.23516 -0.431189 0.420327 37.3107 14.0558 -12.1324 -2.89619 0.0935024 -2.45698e-012 2.75118e-012 4.29057e-012 
-5.7865 105.509 123.558 0.940427 0.20473 -178.842 3.45958 -20.1013 -0.683923 -0.861171 23.5401 -3.63456 0.105475 -8.70431 -0.18801 0.18677 -0.167077 0.817522 1.12743 3.98843 -0.041113 0.632355 3.37205 0.0814893 5.49105 -1.47546 2.61189 -4.96962e-017 7.95139e-016 3.97569e-016 -68.4675 14.7358 -30.1285 6.53837 3.14594 -137.529 0.368473 9.90896 -0.00117926 -2.23267 0.254512 0.419244 91.1645 -36.6197 9.36624 19.045 12.9728 4.99163 -0.369625 9.91382 0.00119887 2.14271 0.215037 -0.0893165 0.785174 41.5278 13.0914 -11.9251 0.898023 0.484283 -0.798979 3.05332 -0.482113 
-5.38391 105.563 121.815 1.30777 0.421115 -178.551 3.9252 -19.0338 -1.43959 -0.772442 24.2243 -3.15057 -0.145044 -10.0773 -0.203788 0.261858 -0.390936 0.909036 1.31329 4.02377 -0.0521015 0.790769 3.77849 0.0676123 5.70816 -1.88903 2.37215 4.96962e-017 1.59028e-015 1.98785e-016 -68.1708 15.7393 -31.4318 6.63814 2.545 -138.854 0.368473 9.90896 -0.00117926 -2.06211 0.253153 0.308481 91.6628 -36.4942 10.1596 18.8617 13.0445 5.3778 -0.369625 9.91382 0.00119887 2.98582 -1.93684 0.300547 1.40126 45.7056 12.0882 -11.6567 4.29412 0.81962 -0.672333 4.65894 -0.227912 
-5.02722 105.631 120.187 1.52098 0.53156 -178.031 4.17998 -18.0161 -2.38573 -0.772353 24.5981 -2.69883 -0.414178 -11.1571 -0.227892 0.089467 -0.806602 0.763406 1.58114 4.01363 -0.113333 0.754679 4.14924 0.0621968 6.03982 -2.13322 1.93642 4.96962e-017 1.59028e-015 -3.97569e-016 -67.6518 16.6035 -33.1027 6.69445 2.20763 -139.81 0.368473 9.90896 -0.00117926 -1.97871 0.245771 0.156535 92.0804 -36.2143 10.8015 18.828 13.1604 6.04424 -0.369625 9.91382 0.00119887 3.45524 -4.49394 0.948531 2.52549 49.907 10.6552 -11.1023 6.86297 1.02001 2.63483 1.39259 2.54104 
-4.70782 105.748 118.611 1.54761 0.552358 -177.457 4.23951 -16.9876 -3.15008 -0.724681 24.695 -2.51319 -0.618605 -12.0344 -0.249747 -0.056205 -1.23252 0.648487 1.77684 3.97062 -0.183879 0.568157 4.40877 0.0643794 6.28878 -2.28621 1.51887 0 0 -1.19271e-015 -66.9886 17.3676 -34.8093 6.77916 1.90143 -140.539 0.368473 9.90896 -0.00117926 -1.98702 0.238155 0.0475959 92.4618 -35.7656 11.4242 18.8895 13.2761 6.72073 -0.369625 9.91382 0.00119887 3.64173 -7.16047 1.42792 3.69223 53.6957 9.9164 -10.3903 8.30185 1.09073 6.5006 -2.25481 5.43549 
-4.42176 105.983 117.044 1.27268 0.462048 -176.952 3.98836 -15.8609 -3.24707 -0.449915 24.384 -3.05969 -0.612731 -12.7027 -0.254933 0.218706 -1.45893 0.944605 1.70578 3.88197 -0.22845 0.191818 4.44705 0.0773243 6.24718 -2.41378 1.29961 4.96962e-017 0 -3.97569e-016 -66.222 18.111 -36.3225 6.95651 1.42577 -141.08 0.368473 9.90896 -0.00117926 -2.09093 0.236881 0.0745771 92.7629 -35.045 12.0748 19.0816 13.3666 7.23614 -0.369625 9.91382 0.00119887 3.40919 -9.731 1.21164 3.70429 56.6028 12.1206 -9.51136 7.73857 0.962227 7.29404 -1.86276 6.08744 
-4.18257 106.235 115.506 0.867829 0.311557 -176.516 3.58394 -14.7674 -3.21327 -0.165488 23.976 -3.62031 -0.603283 -13.2733 -0.260685 0.397735 -1.70572 1.14073 1.55827 3.79615 -0.264688 -0.241203 4.35797 0.0938898 6.04813 -2.44554 1.23856 -9.93923e-017 0 -7.95139e-016 -65.4223 18.7278 -37.5678 7.18068 0.839395 -141.498 0.368473 9.90896 -0.00117926 -2.3413 0.235327 0.175748 93.1732 -34.2291 12.8924 19.2416 13.4133 7.489 -0.369625 9.91382 0.00119887 2.88264 -12.2172 0.772952 2.95146 58.6862 15.1216 -8.71685 6.45189 0.777877 7.29294 -0.752933 6.193 
-4.01165 106.42 114 0.460264 0.107872 -176.193 3.18132 -13.8617 -3.49657 -0.0426636 23.767 -3.43102 -0.804892 -13.8417 -0.283367 -0.228595 -2.21016 0.53784 1.46156 3.77238 -0.296427 -0.605775 4.12357 0.108238 5.75065 -2.28063 1.37077 -9.93923e-017 -1.59028e-015 -0 -64.6909 19.1216 -38.3562 7.41833 0.134669 -141.867 0.368473 9.90896 -0.00117926 -2.7809 0.229665 0.309859 93.8707 -33.505 14.0789 19.1759 13.3657 7.18431 -0.369625 9.91382 0.00119887 2.19806 -14.6034 0.399761 2.43824 59.9899 16.4801 -8.26491 5.67138 0.683389 8.05119 -1.24701 6.82275 
-3.88151 106.557 112.526 0.0583015 -0.0390731 -175.982 2.79487 -12.9834 -3.84005 0.0262878 23.6846 -3.12281 -1.05135 -14.4488 -0.311934 -0.723763 -2.71084 0.0793586 1.41067 3.76558 -0.329826 -0.917192 3.9693 0.119623 5.36194 -2.07616 1.65079 1.98785e-016 0 7.95139e-016 -64.0279 19.3975 -38.7772 7.68964 -0.696897 -142.19 0.368473 9.90896 -0.00117926 -3.43786 0.218077 0.508383 94.8412 -32.7167 15.4834 19.0092 13.2937 6.73196 -0.369625 9.91382 0.00119887 1.44222 -16.7616 0.148774 2.1138 60.6181 16.9005 -8.10519 4.67319 0.599504 8.8864 -1.8709 7.49741 
-3.77097 106.629 111.086 -0.301074 0.0231932 -175.909 2.43925 -12.0057 -4.29467 0.064995 23.817 -3.0476 -1.24521 -15.2474 -0.342211 0.0644994 -2.86866 0.890318 1.44289 3.7474 -0.378837 -1.15936 4.19499 0.124853 4.90746 -1.9611 2.059 -9.93923e-017 -3.18055e-015 -1.59028e-015 -63.4195 19.6313 -38.8659 8.012 -1.69627 -142.491 0.368473 9.90896 -0.00117926 -4.39289 0.197568 0.791243 96.2034 -31.7478 17.0564 18.7956 13.2566 6.47075 -0.369625 9.91382 0.00119887 0.760914 -18.5204 0.231242 2.09455 60.6696 16.2002 -8.39107 2.99458 0.492633 9.47856 -1.68596 8.00726 
-3.68248 106.662 109.668 -0.582354 0.173576 -175.946 2.24422 -10.9825 -4.39309 0.126374 23.9801 -3.26738 -1.3944 -15.9972 -0.369948 0.88114 -3.15391 1.73072 1.55828 3.72682 -0.423891 -1.30203 4.55947 0.125468 4.39643 -1.91867 2.55318 -1.98785e-016 1.59028e-015 -0 -62.9564 19.7648 -38.6167 8.35579 -2.77797 -142.774 0.368473 9.90896 -0.00117926 -5.53063 0.167845 1.15184 97.7105 -30.6824 18.6901 18.5585 13.2393 6.3178 -0.369625 9.91382 0.00119887 0.218123 -19.9967 0.505216 2.08872 60.0526 15.2962 -8.78834 1.08151 0.374207 10.1605 -1.4237 8.60612 
-3.61286 106.681 108.265 -0.7093 0.370903 -176.075 2.383 -9.84578 -3.29579 0.351059 23.9086 -4.30672 -1.43751 -16.4439 -0.385327 0.625725 -4.02301 1.53131 1.80079 3.70069 -0.450604 -1.27896 4.97045 0.120936 3.8341 -1.99806 3.07707 -1.98785e-016 -1.59028e-015 -1.59028e-015 -62.6996 19.7506 -38.0391 8.70668 -3.88844 -143.064 0.368473 9.90896 -0.00117926 -6.80498 0.12633 1.58121 99.2373 -29.5709 20.3021 18.317 13.2478 6.30678 -0.369625 9.91382 0.00119887 -0.0605637 -21.2166 0.932095 1.8348 58.6966 15.1013 -8.97527 -0.819056 0.23471 11.3126 -1.51608 9.58327 
-3.55782 106.656 106.872 -0.760797 0.5283 -176.299 2.58622 -8.81838 -2.1979 0.501926 23.9203 -5.13018 -1.48235 -16.7824 -0.399883 -0.0758641 -5.18484 0.90253 2.07614 3.67709 -0.457376 -1.18145 5.28108 0.114228 3.26638 -2.13005 3.65345 9.93923e-017 0 -3.97569e-016 -62.6936 19.5964 -37.1306 9.03891 -4.97072 -143.331 0.368473 9.90896 -0.00117926 -8.08828 0.0769147 2.10641 100.598 -28.4164 21.8022 18.1368 13.2784 6.42704 -0.369625 9.91382 0.00119887 -0.187365 -22.2785 1.39537 1.35034 56.6805 15.4954 -9.05938 -2.57278 0.10065 12.5523 -1.91077 10.6246 
-3.50479 106.554 105.495 -0.799453 0.515943 -176.657 2.74011 -8.20776 -2.26311 0.297445 24.3582 -4.49814 -1.64967 -17.0534 -0.42309 -1.10777 -6.72062 -0.0516232 2.27859 3.67005 -0.432542 -1.07891 5.26703 0.108304 2.73295 -2.29917 4.34443 -5.96354e-016 1.59028e-015 -0 -63.0094 19.2791 -35.834 9.33775 -5.98779 -143.561 0.368473 9.90896 -0.00117926 -9.2526 0.0223825 2.68079 101.57 -27.1033 23.1198 18.1223 13.3152 6.61186 -0.369625 9.91382 0.00119887 -0.230671 -23.3365 1.8263 0.693088 54.0512 16.6843 -9.03033 -3.8801 0.00157167 13.5854 -2.96932 11.475 
-3.47541 106.409 104.109 -0.805904 0.420941 -177.027 2.87872 -7.74146 -2.68721 0.00993942 24.9262 -3.54884 -1.84122 -17.4654 -0.451977 -2.03141 -7.96445 -0.88596 2.48653 3.65864 -0.391924 -0.971322 5.06849 0.102686 2.25048 -2.39341 4.97553 6.4605e-016 -1.59028e-015 -0 -63.5904 18.8083 -34.337 9.56811 -6.81626 -143.754 0.368473 9.90896 -0.00117926 -10.2525 -0.036461 3.51642 102.188 -26.0493 24.142 18.1752 13.4001 7.0636 -0.369625 9.91382 0.00119887 -0.239441 -24.2556 2.02756 -0.00521827 50.8157 18.2053 -8.89926 -4.98968 -0.0805865 14.5456 -3.87814 12.2557 
-3.48924 106.243 102.684 -0.779187 0.279387 -177.258 2.97236 -7.23289 -2.94381 -0.126922 25.4327 -3.25105 -1.95749 -18.3944 -0.485082 -2.07563 -7.8749 -0.932406 2.77009 3.62057 -0.35433 -0.906152 4.73189 0.0982092 1.82594 -2.22132 5.28243 9.93923e-017 1.59028e-015 -0 -64.4435 18.1967 -32.8209 9.68031 -7.27899 -143.913 0.368473 9.90896 -0.00117926 -10.9488 -0.0994131 5.06494 102.393 -25.8798 24.5847 18.2079 13.6033 8.16081 -0.369625 9.91382 0.00119887 -0.325096 -24.9666 1.65695 -0.849754 47.0144 19.9608 -8.5945 -6.14812 -0.157776 15.4689 -3.52064 13.0468 
-3.53996 106.061 101.242 -0.721923 0.114939 -177.469 2.98552 -6.72079 -3.38357 -0.178623 25.9271 -2.91386 -2.12552 -19.3795 -0.528442 -1.84927 -7.6719 -0.721455 3.04842 3.57392 -0.299154 -0.81023 4.31418 0.0938969 1.50587 -2.00864 5.59578 4.47266e-016 -1.59028e-015 -3.97569e-016 -65.4689 17.4557 -31.2481 9.7092 -7.49447 -144.041 0.368473 9.90896 -0.00117926 -11.4908 -0.161395 6.56095 102.375 -25.8156 24.9074 18.2732 13.8109 9.3125 -0.369625 9.91382 0.00119887 -0.425102 -25.4273 1.05498 -1.40418 42.6431 21.4327 -8.36395 -7.06207 -0.218483 16.1875 -3.2018 13.6807 
-3.63418 105.865 99.7956 -0.63084 -0.0408856 -177.74 2.84418 -6.20668 -4.32354 -0.123333 26.4282 -2.02035 -2.53183 -20.044 -0.600009 -1.77616 -8.47668 -0.595341 3.27044 3.52651 -0.203656 -0.604102 3.87112 0.088639 1.39764 -1.95687 6.26439 4.96962e-017 -4.77083e-015 -0 -66.6539 16.5508 -29.6148 9.64059 -7.45625 -144.133 0.368473 9.90896 -0.00117926 -12.0004 -0.218008 7.21236 102.239 -25.1298 25.5475 18.4346 13.9176 9.90553 -0.369625 9.91382 0.00119887 -0.464245 -25.5687 0.458575 -1.62686 37.6276 22.4267 -8.47143 -7.42482 -0.248383 16.6297 -4.30747 14.0277 
-3.75271 105.684 98.3387 -0.522481 -0.175572 -178.045 2.66647 -5.6141 -5.33486 -0.0484387 26.8164 -0.99141 -2.89568 -20.5106 -0.661061 -1.70702 -9.54045 -0.459076 3.41711 3.48673 -0.0930537 -0.354048 3.45274 0.083659 1.33903 -1.94488 6.96955 -5.46658e-016 -2.38542e-015 -0 -67.7552 15.6457 -27.9947 9.56423 -7.36918 -144.205 0.368473 9.90896 -0.00117926 -12.4339 -0.268666 7.55088 102.033 -24.3121 26.2431 18.6248 14.0044 10.3729 -0.369625 9.91382 0.00119887 -0.500006 -25.4038 -0.124962 -1.35273 32.2447 22.6422 -8.79353 -7.52317 -0.266909 16.7218 -5.44014 14.0733 
-3.87697 105.55 96.8719 -0.419208 -0.263273 -178.39 2.49659 -4.8599 -6.20847 -0.0451488 26.9824 0.103599 -2.94474 -20.7641 -0.669696 -1.64986 -10.4735 -0.343439 3.43309 3.46874 0.0169512 -0.0948572 3.15121 0.0795793 1.14153 -1.90229 7.48498 5.46658e-016 -7.95139e-016 -1.98785e-016 -68.4641 15.0026 -26.4952 9.59868 -7.51595 -144.272 0.368473 9.90896 -0.00117926 -12.8186 -0.314974 7.87916 101.906 -23.6339 26.876 18.7782 14.1205 10.9907 -0.369625 9.91382 0.00119887 -0.585795 -24.905 -0.520075 -0.523046 26.5789 21.3825 -9.39087 -7.55335 -0.29448 16.164 -5.50525 13.5938 
-4.01179 105.456 95.3846 -0.297773 -0.312365 -178.757 2.44568 -3.97272 -6.60824 -0.00453563 26.9372 0.69289 -2.8355 -20.841 -0.65176 -1.57412 -11.3198 -0.214868 3.37547 3.46306 0.120596 0.158651 2.8959 0.0770664 0.986023 -1.88011 7.88211 -1.54058e-015 7.95139e-016 -1.98785e-016 -69.0671 14.3499 -24.9593 9.63693 -7.66112 -144.342 0.368473 9.90896 -0.00117926 -13.0579 -0.345324 8.09232 101.733 -23.0083 27.4645 18.9314 14.24 11.6214 -0.369625 9.91382 0.00119887 -0.660124 -24.1307 -0.995025 0.271163 20.7489 19.9202 -9.98036 -7.48034 -0.314525 15.4966 -4.99333 13.0347 
